# Blender v2.79 (sub 0) OBJ File: ''
# www.blender.org
mtllib untitled.mtl
o Cube_Cube.001
v 1.000000 8.652402 -0.877620
v 1.000000 8.652402 1.000000
v -0.706296 8.652402 1.000000
v -0.706296 8.652402 -0.877621
v 1.000000 10.652402 -0.877620
v 0.999999 10.652402 1.000001
v -0.706297 10.652402 1.000000
v -0.706296 10.652402 -0.877620
v 1.673717 7.324572 -0.673652
v 1.279414 7.355267 0.862323
v -0.985711 7.355267 0.862323
v -1.380013 7.324572 -0.673653
v 1.673718 8.347763 -0.673652
v 1.279413 8.197239 0.969406
v -0.985711 8.197239 0.969405
v -1.380013 8.347763 -0.673652
v 1.351863 5.964177 -0.685321
v 1.351863 5.964177 0.700619
v -1.058159 5.964177 0.700618
v -1.058158 5.964177 -0.685321
v 1.351863 7.128407 -0.685321
v 1.351862 7.128407 0.700619
v -1.058159 7.128407 0.700618
v -1.058159 7.128407 -0.685321
v 1.351863 4.551968 -0.532345
v 1.351863 4.577463 0.522146
v -1.058159 4.577463 0.522146
v -1.058158 4.551968 -0.532345
v 1.351863 5.652457 -0.685321
v 1.351862 5.652457 0.649627
v -1.058159 5.652457 0.649626
v -1.058159 5.652457 -0.685321
v 1.729094 4.176289 -0.121473
v 1.844874 4.171348 0.123992
v 2.510306 4.171348 0.123992
v 2.523937 4.176289 -0.121473
v 1.896225 4.386044 0.243073
v 1.896225 4.386044 -0.231824
v 2.444922 4.386044 -0.231824
v 2.444922 4.386044 0.243073
v 1.896225 5.993495 0.243073
v 1.896225 5.993495 -0.231824
v 2.444922 5.993495 -0.231824
v 2.444922 5.993495 0.243073
v 1.790064 6.145681 0.289425
v 1.790064 6.145681 -0.278177
v 2.507025 6.145681 -0.278177
v 2.507025 6.145681 0.289425
v 1.790064 8.066922 0.289425
v 1.790065 8.066922 -0.278177
v 2.507025 8.066922 -0.278177
v 2.507025 8.066922 0.289425
v -2.216296 8.079668 -0.283800
v -2.216297 8.079668 0.283801
v -1.499336 8.079668 0.283801
v -1.499336 8.079668 -0.283800
v -2.216296 6.158427 -0.283801
v -2.216297 6.158427 0.283801
v -1.499336 6.158427 0.283801
v -1.499336 6.158427 -0.283800
v -2.154194 6.006241 -0.237449
v -2.154194 6.006241 0.237449
v -1.605497 6.006241 0.237449
v -1.605497 6.006241 -0.237448
v -2.154194 4.398789 -0.237449
v -2.154194 4.398789 0.237449
v -1.605497 4.398789 0.237449
v -1.605497 4.398789 -0.237449
v -2.233209 4.189034 0.127098
v -2.219578 4.184093 -0.118368
v -1.554146 4.184093 -0.118368
v -1.438365 4.189034 0.127098
v -2.233209 3.528446 0.127098
v -2.233209 3.528446 -0.102083
v -1.438366 3.528446 -0.102083
v -1.438366 3.528446 0.127098
v 2.523937 3.515700 -0.121473
v 2.523937 3.515700 0.107707
v 1.729094 3.515700 0.107707
v 1.729094 3.515700 -0.121474
v 1.000000 8.652402 -0.877620
v 1.000000 8.652402 -0.877620
v 1.000000 8.652402 1.000000
v 1.000000 8.652402 1.000000
v -0.706296 8.652402 -0.877621
v -0.706296 8.652402 -0.877621
v 1.000000 10.652402 -0.877620
v 1.000000 10.652402 -0.877620
v -0.706296 8.652402 1.000000
v -0.706296 8.652402 1.000000
v 0.999999 10.652402 1.000001
v 0.999999 10.652402 1.000001
v -0.706297 10.652402 1.000000
v -0.706297 10.652402 1.000000
v -0.706296 10.652402 -0.877620
v -0.706296 10.652402 -0.877620
v 1.673717 7.324572 -0.673652
v 1.673717 7.324572 -0.673652
v 1.279414 7.355267 0.862323
v 1.279414 7.355267 0.862323
v -1.380013 7.324572 -0.673653
v -1.380013 7.324572 -0.673653
v 1.673718 8.347763 -0.673652
v 1.673718 8.347763 -0.673652
v -0.985711 7.355267 0.862323
v -0.985711 7.355267 0.862323
v 1.279413 8.197239 0.969406
v 1.279413 8.197239 0.969406
v -0.985711 8.197239 0.969405
v -0.985711 8.197239 0.969405
v -1.380013 8.347763 -0.673652
v -1.380013 8.347763 -0.673652
v 1.351863 5.964177 -0.685321
v 1.351863 5.964177 -0.685321
v 1.351863 5.964177 0.700619
v 1.351863 5.964177 0.700619
v -1.058158 5.964177 -0.685321
v -1.058158 5.964177 -0.685321
v 1.351863 7.128407 -0.685321
v 1.351863 7.128407 -0.685321
v -1.058159 5.964177 0.700618
v -1.058159 5.964177 0.700618
v 1.351862 7.128407 0.700619
v 1.351862 7.128407 0.700619
v -1.058159 7.128407 0.700618
v -1.058159 7.128407 0.700618
v -1.058159 7.128407 -0.685321
v -1.058159 7.128407 -0.685321
v 1.351863 4.551968 -0.532345
v 1.351863 4.551968 -0.532345
v 1.351863 4.577463 0.522146
v 1.351863 4.577463 0.522146
v -1.058158 4.551968 -0.532345
v -1.058158 4.551968 -0.532345
v 1.351863 5.652457 -0.685321
v 1.351863 5.652457 -0.685321
v -1.058159 4.577463 0.522146
v -1.058159 4.577463 0.522146
v 1.351862 5.652457 0.649627
v 1.351862 5.652457 0.649627
v -1.058159 5.652457 0.649626
v -1.058159 5.652457 0.649626
v -1.058159 5.652457 -0.685321
v -1.058159 5.652457 -0.685321
v 1.729094 4.176289 -0.121473
v 1.729094 4.176289 -0.121473
v 1.844874 4.171348 0.123992
v 1.844874 4.171348 0.123992
v 2.523937 4.176289 -0.121473
v 2.523937 4.176289 -0.121473
v 2.510306 4.171348 0.123992
v 2.510306 4.171348 0.123992
v 1.896225 4.386044 0.243073
v 1.896225 4.386044 0.243073
v 1.896225 4.386044 -0.231824
v 1.896225 4.386044 -0.231824
v 2.444922 4.386044 0.243073
v 2.444922 4.386044 0.243073
v 1.896225 5.993495 0.243073
v 1.896225 5.993495 0.243073
v 2.444922 4.386044 -0.231824
v 2.444922 4.386044 -0.231824
v 1.896225 5.993495 -0.231824
v 1.896225 5.993495 -0.231824
v 2.444922 5.993495 -0.231824
v 2.444922 5.993495 -0.231824
v 2.444922 5.993495 0.243073
v 2.444922 5.993495 0.243073
v 1.790064 6.145681 0.289425
v 1.790064 6.145681 0.289425
v 1.790064 6.145681 -0.278177
v 1.790064 6.145681 -0.278177
v 2.507025 6.145681 0.289425
v 2.507025 6.145681 0.289425
v 1.790064 8.066922 0.289425
v 1.790064 8.066922 0.289425
v 2.507025 6.145681 -0.278177
v 2.507025 6.145681 -0.278177
v 1.790065 8.066922 -0.278177
v 1.790065 8.066922 -0.278177
v 2.507025 8.066922 -0.278177
v 2.507025 8.066922 -0.278177
v 2.507025 8.066922 0.289425
v 2.507025 8.066922 0.289425
v -2.216297 8.079668 0.283801
v -2.216297 8.079668 0.283801
v -2.216296 8.079668 -0.283800
v -2.216296 8.079668 -0.283800
v -1.499336 8.079668 0.283801
v -1.499336 8.079668 0.283801
v -1.499336 8.079668 -0.283800
v -1.499336 8.079668 -0.283800
v -2.216296 6.158427 -0.283801
v -2.216296 6.158427 -0.283801
v -2.216297 6.158427 0.283801
v -2.216297 6.158427 0.283801
v -1.499336 6.158427 0.283801
v -1.499336 6.158427 0.283801
v -1.499336 6.158427 -0.283800
v -1.499336 6.158427 -0.283800
v -2.154194 6.006241 0.237449
v -2.154194 6.006241 0.237449
v -2.154194 6.006241 -0.237449
v -2.154194 6.006241 -0.237449
v -1.605497 6.006241 0.237449
v -1.605497 6.006241 0.237449
v -1.605497 6.006241 -0.237448
v -1.605497 6.006241 -0.237448
v -2.154194 4.398789 -0.237449
v -2.154194 4.398789 -0.237449
v -2.154194 4.398789 0.237449
v -2.154194 4.398789 0.237449
v -1.605497 4.398789 0.237449
v -1.605497 4.398789 0.237449
v -1.605497 4.398789 -0.237449
v -1.605497 4.398789 -0.237449
v -2.219578 4.184093 -0.118368
v -2.219578 4.184093 -0.118368
v -2.233209 4.189034 0.127098
v -2.233209 4.189034 0.127098
v -1.554146 4.184093 -0.118368
v -1.554146 4.184093 -0.118368
v -1.438365 4.189034 0.127098
v -1.438365 4.189034 0.127098
v -2.233209 3.528446 0.127098
v -2.233209 3.528446 0.127098
v -2.233209 3.528446 -0.102083
v -2.233209 3.528446 -0.102083
v -1.438366 3.528446 -0.102083
v -1.438366 3.528446 -0.102083
v -1.438366 3.528446 0.127098
v -1.438366 3.528446 0.127098
v 2.523937 3.515700 -0.121473
v 2.523937 3.515700 -0.121473
v 2.523937 3.515700 0.107707
v 2.523937 3.515700 0.107707
v 1.729094 3.515700 0.107707
v 1.729094 3.515700 0.107707
v 1.729094 3.515700 -0.121474
v 1.729094 3.515700 -0.121474
vt 0.263915 0.898775
vt 0.301084 0.864997
vt 0.301084 0.898775
vt 0.246117 0.945214
vt 0.210155 0.984786
vt 0.210155 0.945214
vt 0.298167 0.990239
vt 0.168562 0.858032
vt 0.299105 0.858965
vt 0.113315 0.996881
vt 0.003376 0.876869
vt 0.112768 0.877416
vt 0.295353 0.991034
vt 0.170418 0.857237
vt 0.295711 0.857574
vt 0.170180 0.858625
vt 0.296549 0.990344
vt 0.169461 0.989647
vt 0.576198 0.825848
vt 0.599841 0.839506
vt 0.572693 0.839506
vt 0.599841 0.839521
vt 0.576198 0.854189
vt 0.572693 0.839521
vt 0.557656 0.830410
vt 0.571753 0.839233
vt 0.557656 0.839506
vt 0.624910 0.967000
vt 0.412590 0.890282
vt 0.624910 0.890282
vt 0.563854 0.811735
vt 0.572677 0.825833
vt 0.563581 0.825833
vt 0.572693 0.816737
vt 0.599841 0.825833
vt 0.572693 0.825833
vt 0.556543 0.853457
vt 0.576402 0.818924
vt 0.576402 0.853457
vt 0.556543 0.818902
vt 0.591076 0.799043
vt 0.591076 0.818902
vt 0.596283 0.852311
vt 0.576424 0.835629
vt 0.596283 0.835629
vt 0.627747 0.871772
vt 0.414753 0.768879
vt 0.627747 0.768879
vt 0.591098 0.802220
vt 0.610957 0.818902
vt 0.591098 0.818902
vt 0.610957 0.835606
vt 0.576424 0.818924
vt 0.610957 0.818924
vt 0.226026 0.626590
vt 0.196474 0.613656
vt 0.226026 0.613656
vt 0.567623 0.819520
vt 0.617377 0.791961
vt 0.617377 0.819520
vt 0.291159 0.690560
vt 0.033068 0.599186
vt 0.295337 0.600091
vt 0.632045 0.700493
vt 0.362955 0.606258
vt 0.632045 0.606258
vt 0.293610 0.596686
vt 0.034268 0.690560
vt 0.032591 0.595091
vt 0.031455 0.596772
vt 0.296045 0.694323
vt 0.031455 0.694323
vt 0.791139 0.570182
vt 0.794302 0.578756
vt 0.791088 0.578756
vt 0.770277 0.578774
vt 0.778912 0.589164
vt 0.770277 0.589164
vt 0.175577 0.338748
vt 0.187091 0.328783
vt 0.187091 0.338748
vt 0.166866 0.426092
vt 0.150801 0.439997
vt 0.150801 0.426093
vt 0.184845 0.502417
vt 0.120743 0.302583
vt 0.184845 0.302583
vt 0.188247 0.500113
vt 0.120753 0.302387
vt 0.188247 0.302387
vt 0.184881 0.502481
vt 0.121715 0.305019
vt 0.184881 0.305019
vt 0.119055 0.303687
vt 0.187368 0.503813
vt 0.119055 0.503813
vt 0.575306 0.820491
vt 0.579059 0.823462
vt 0.575306 0.823462
vt 0.590360 0.817506
vt 0.586606 0.820478
vt 0.586606 0.817506
vt 0.582829 0.827564
vt 0.579857 0.817506
vt 0.582829 0.817506
vt 0.582829 0.817494
vt 0.579075 0.807436
vt 0.582829 0.807436
vt 0.593343 0.817506
vt 0.590372 0.827564
vt 0.590372 0.817506
vt 0.586606 0.807436
vt 0.590360 0.817494
vt 0.586606 0.817494
vt 0.582841 0.807436
vt 0.586594 0.817494
vt 0.582841 0.817494
vt 0.585812 0.827564
vt 0.582841 0.817506
vt 0.585812 0.817506
vt 0.579059 0.817495
vt 0.575309 0.807436
vt 0.579063 0.807437
vt 0.593343 0.817494
vt 0.590372 0.807436
vt 0.593343 0.807436
vt 0.575306 0.820479
vt 0.579059 0.817507
vt 0.579059 0.820479
vt 0.586606 0.824243
vt 0.589578 0.820490
vt 0.589578 0.824243
vt 0.121402 0.304666
vt 0.185598 0.500333
vt 0.121402 0.500333
vt 0.182717 0.501312
vt 0.121549 0.308688
vt 0.182717 0.308688
vt 0.187111 0.500562
vt 0.119312 0.301938
vt 0.187111 0.301938
vt 0.187748 0.503826
vt 0.118008 0.303674
vt 0.187748 0.303674
vt 0.150801 0.453907
vt 0.166866 0.440003
vt 0.166866 0.453907
vt 0.187091 0.338752
vt 0.175577 0.348717
vt 0.175577 0.338752
vt 0.770277 0.578758
vt 0.780666 0.570124
vt 0.780666 0.578758
vt 0.770495 0.589180
vt 0.773491 0.597814
vt 0.770277 0.597751
vt 0.780683 0.578696
vt 0.789559 0.570124
vt 0.791072 0.578696
vt 0.796424 0.578964
vt 0.792887 0.587391
vt 0.793435 0.578774
vt 0.787804 0.593801
vt 0.778928 0.590592
vt 0.789317 0.590592
vt 0.789334 0.593588
vt 0.799723 0.590592
vt 0.799723 0.593588
vt 0.789317 0.578778
vt 0.780438 0.587347
vt 0.778928 0.578774
vt 0.792871 0.578964
vt 0.789334 0.587391
vt 0.789881 0.578774
vt 0.780441 0.587367
vt 0.789317 0.590576
vt 0.778928 0.590576
vt 0.789317 0.593818
vt 0.778928 0.596813
vt 0.778928 0.593818
vt 0.263915 0.864997
vt 0.246117 0.984786
vt 0.167624 0.989306
vt 0.003376 0.999381
vt 0.170059 0.990697
vt 0.297268 0.859323
vt 0.596335 0.825848
vt 0.596335 0.854189
vt 0.572677 0.831744
vt 0.412590 0.967000
vt 0.571343 0.810811
vt 0.599841 0.816737
vt 0.556543 0.818924
vt 0.556543 0.799043
vt 0.576424 0.852311
vt 0.414753 0.871772
vt 0.610957 0.802220
vt 0.576424 0.835606
vt 0.196474 0.626590
vt 0.567623 0.791961
vt 0.035091 0.693060
vt 0.362955 0.700493
vt 0.295337 0.693060
vt 0.296045 0.596772
vt 0.794134 0.570124
vt 0.778912 0.578774
vt 0.175577 0.328783
vt 0.166866 0.439997
vt 0.120744 0.502417
vt 0.120753 0.500113
vt 0.121715 0.502481
vt 0.187368 0.303687
vt 0.579059 0.820491
vt 0.590360 0.820478
vt 0.579857 0.827564
vt 0.579075 0.817494
vt 0.593343 0.827564
vt 0.590360 0.807436
vt 0.586594 0.807436
vt 0.582841 0.827564
vt 0.575306 0.817494
vt 0.590372 0.817494
vt 0.575306 0.817507
vt 0.586606 0.820490
vt 0.185598 0.304666
vt 0.121549 0.501312
vt 0.119312 0.500562
vt 0.118008 0.503826
vt 0.150801 0.440003
vt 0.187091 0.348717
vt 0.770277 0.570124
vt 0.773491 0.589180
vt 0.780861 0.570124
vt 0.796424 0.587669
vt 0.779106 0.593801
vt 0.789334 0.590592
vt 0.789136 0.587350
vt 0.792871 0.587669
vt 0.789139 0.587367
vt 0.789317 0.596813
vn 0.0000 -1.0000 0.0000
vn 0.0000 1.0000 0.0000
vn 1.0000 -0.0000 0.0000
vn 0.0000 -0.0000 1.0000
vn -1.0000 -0.0000 -0.0000
vn 0.0000 0.0000 -1.0000
vn -0.0000 -0.9998 0.0200
vn -0.0000 0.9958 0.0912
vn 0.9686 -0.0000 0.2486
vn -0.0000 -0.1262 0.9920
vn -0.9686 -0.0000 0.2486
vn -0.0000 -0.9997 0.0242
vn 0.0000 -0.1178 0.9930
vn 0.0000 -0.1377 -0.9905
vn 0.9983 0.0194 0.0558
vn -0.9983 0.0194 -0.0558
vn -0.0000 -0.0248 -0.9997
vn -0.0000 0.9998 -0.0201
vn -0.0000 -0.0248 0.9997
vn 0.0000 0.9998 0.0201
vn 0.9726 -0.0293 0.2307
vn -0.9726 -0.0293 0.2307
vn 0.8934 0.1472 -0.4244
vn -0.8934 0.1472 0.4244
usemtl Material.001
s off
f 2/1/1 4/2/1 1/3/1
f 95/4/2 91/5/2 87/6/2
f 5/7/3 83/8/3 81/9/3
f 92/10/4 89/11/4 84/12/4
f 94/13/5 85/14/5 90/15/5
f 82/16/6 96/17/6 88/18/6
f 10/19/7 12/20/7 9/21/7
f 111/22/8 107/23/8 103/24/8
f 13/25/9 99/26/9 97/27/9
f 108/28/10 105/29/10 100/30/10
f 106/31/11 16/32/11 101/33/11
f 98/34/6 112/35/6 104/36/6
f 18/37/1 20/38/1 17/39/1
f 127/40/2 123/41/2 119/42/2
f 21/43/3 115/44/3 113/45/3
f 124/46/4 121/47/4 116/48/4
f 126/49/5 117/50/5 122/51/5
f 114/52/6 128/53/6 120/54/6
f 26/55/12 28/56/12 25/57/12
f 143/58/2 139/59/2 135/60/2
f 29/61/3 131/62/3 129/63/3
f 140/64/13 137/65/13 132/66/13
f 138/67/5 32/68/5 133/69/5
f 130/70/14 144/71/14 136/72/14
f 78/73/15 149/74/15 151/75/15
f 36/76/6 80/77/6 145/78/6
f 37/79/1 39/80/1 40/81/1
f 167/82/2 163/83/2 159/84/2
f 41/85/5 155/86/5 153/87/5
f 164/88/6 161/89/6 156/90/6
f 166/91/3 157/92/3 162/93/3
f 154/94/4 168/95/4 160/96/4
f 46/97/1 48/98/1 45/99/1
f 183/100/2 179/101/2 175/102/2
f 49/103/5 171/104/5 169/105/5
f 180/106/6 177/107/6 172/108/6
f 178/109/3 52/110/3 173/111/3
f 170/112/4 184/113/4 176/114/4
f 60/115/6 187/116/6 56/117/6
f 54/118/5 193/119/5 58/120/5
f 55/121/4 195/122/4 59/123/4
f 191/124/3 197/125/3 199/126/3
f 188/127/2 190/128/2 192/129/2
f 198/130/1 194/131/1 200/132/1
f 68/133/6 203/134/6 64/135/6
f 62/136/5 209/137/5 66/138/5
f 63/139/4 211/140/4 67/141/4
f 207/142/3 213/143/3 215/144/3
f 204/145/2 206/146/2 208/147/2
f 216/148/1 212/149/1 210/150/1
f 219/151/4 76/152/4 72/153/4
f 74/154/16 69/155/16 70/156/16
f 227/157/17 71/158/17 75/159/17
f 229/160/3 223/161/3 231/162/3
f 222/163/18 220/164/18 224/165/18
f 226/166/1 230/167/1 232/168/1
f 235/169/19 147/170/19 79/171/19
f 237/172/5 33/173/5 239/174/5
f 148/175/20 150/176/20 146/177/20
f 234/178/1 238/179/1 240/180/1
f 2/1/1 3/181/1 4/2/1
f 95/4/2 93/182/2 91/5/2
f 5/7/3 6/183/3 83/8/3
f 92/10/4 7/184/4 89/11/4
f 94/13/5 8/185/5 85/14/5
f 82/16/6 86/186/6 96/17/6
f 10/19/7 11/187/7 12/20/7
f 111/22/8 109/188/8 107/23/8
f 13/25/21 14/189/21 99/26/21
f 108/28/10 15/190/10 105/29/10
f 106/31/22 110/191/22 16/32/22
f 98/34/6 102/192/6 112/35/6
f 18/37/1 19/193/1 20/38/1
f 127/40/2 125/194/2 123/41/2
f 21/43/3 22/195/3 115/44/3
f 124/46/4 23/196/4 121/47/4
f 126/49/5 24/197/5 117/50/5
f 114/52/6 118/198/6 128/53/6
f 26/55/12 27/199/12 28/56/12
f 143/58/2 141/200/2 139/59/2
f 29/61/3 30/201/3 131/62/3
f 140/64/13 31/202/13 137/65/13
f 138/67/5 142/203/5 32/68/5
f 130/70/14 134/204/14 144/71/14
f 78/73/3 77/205/3 149/74/3
f 36/76/6 233/206/6 80/77/6
f 37/79/1 38/207/1 39/80/1
f 167/82/2 165/208/2 163/83/2
f 41/85/5 42/209/5 155/86/5
f 164/88/6 43/210/6 161/89/6
f 166/91/3 44/211/3 157/92/3
f 154/94/4 158/212/4 168/95/4
f 46/97/1 47/213/1 48/98/1
f 183/100/2 181/214/2 179/101/2
f 49/103/5 50/215/5 171/104/5
f 180/106/6 51/216/6 177/107/6
f 178/109/3 182/217/3 52/110/3
f 170/112/4 174/218/4 184/113/4
f 60/115/6 57/219/6 187/116/6
f 54/118/5 53/220/5 193/119/5
f 55/121/4 185/221/4 195/122/4
f 191/124/3 189/222/3 197/125/3
f 188/127/2 186/223/2 190/128/2
f 198/130/1 196/224/1 194/131/1
f 68/133/6 65/225/6 203/134/6
f 62/136/5 61/226/5 209/137/5
f 63/139/4 201/227/4 211/140/4
f 207/142/3 205/228/3 213/143/3
f 204/145/2 202/229/2 206/146/2
f 216/148/1 214/230/1 212/149/1
f 219/151/4 73/231/4 76/152/4
f 74/154/5 225/232/5 69/155/5
f 227/157/17 217/233/17 71/158/17
f 229/160/23 221/234/23 223/161/23
f 222/163/18 218/235/18 220/164/18
f 226/166/1 228/236/1 230/167/1
f 235/169/19 35/237/19 147/170/19
f 237/172/24 34/238/24 33/173/24
f 148/175/20 152/239/20 150/176/20
f 234/178/1 236/240/1 238/179/1
